#!OML:ASF G:\acrobat\cartwheel_test\acrobat_wednesday\Session 1\acrobatwednesday.ASF
:FULLY-SPECIFIED
:DEGREES
183
root -0.180395 16.1882 1.17563 -4.53773 95.3605 333.002
lowerback 2.95814 1.95262 2.03152
upperback 1.83021 2.66845 -0.0961786
thorax 0.316973 1.35937 -1.30316
lowerneck -22.9234 -4.04816 -4.65273
upperneck 34.4679 -4.04632 2.26031
head 16.3878 -1.66311 1.04964
rclavicle 2.38542e-014 -4.29375e-014
rhumerus -25.8435 -34.3073 -67.7724
rradius 19.8141
rwrist 396.519
rhand -34.8644 361.124
rfingers 7.12502
rthumb -8.01385 -388.704
lclavicle 2.38542e-014 -4.29375e-014
lhumerus -210.25 171.302 -114.301
lradius 21.0557
lwrist 17.9068
lhand -32.8342 337.306
lfingers 7.12502
lthumb -6.05413 367.199
rfemur -6.5548 5.17546 19.5965
rtibia 10.1222
rfoot 347.049 12.9444
rtoes 15.2107
lfemur -9.09565 -6.27036 -26.7725
ltibia 13.0595
lfoot 374.502 3.64698
ltoes -33.8992
184
root -0.44477 16.136 1.24894 -4.48599 94.9571 332.983
lowerback 2.55319 1.91707 1.33279
upperback 1.69472 2.59678 0.190159
thorax 0.356576 1.31461 -0.606816
lowerneck -23.6321 -4.00551 -4.57192
upperneck 33.9694 -3.98591 2.07416
head 16.2937 -1.6748 0.94746
rclavicle -2.06736e-014 -3.81667e-014
rhumerus -23.8719 -37.8711 -67.1652
rradius 19.512
rwrist 399.102
rhand -34.849 359.248
rfingers 7.12502
rthumb -7.99904 -390.58
lclavicle -2.06736e-014 -3.81667e-014
lhumerus -210.006 164.936 -116.617
lradius 18.3657
lwrist 13.9693
lhand -33.5064 337.105
lfingers 7.12502
lthumb -6.7031 366.979
rfemur -5.85478 6.82876 19.9447
rtibia 7.15868
rfoot 347.223 14.4763
rtoes 12.0939
lfemur -9.54192 -7.11194 -26.5053
ltibia 12.1672
lfoot 377.185 4.65979
ltoes -34.0038
185
root -0.695894 16.1369 1.33567 -10.4743 95.1603 326.765
lowerback 1.96207 1.80374 0.0320956
upperback 1.62465 2.41602 0.152958
thorax 0.559116 1.21249 0.103929
lowerneck -23.8262 -4.06683 -4.39052
upperneck 33.1754 -4.21693 2.0879
head 15.9513 -1.76725 0.860331
rclavicle 3.77691e-014 -3.97569e-015
rhumerus -22.1228 -41.4603 -67.3931
rradius 19.6073
rwrist 401.456
rhand -34.9637 357.383
rfingers 7.12502
rthumb -8.10978 -392.441
lclavicle 3.77691e-014 -3.97569e-015
lhumerus -209.496 154.638 -120.724
lradius 14.1593
lwrist 4.62241
lhand -33.9425 337.143
lfingers 7.12502
lthumb -7.12408 367.003
rfemur -5.08762 9.77692 19.7398
rtibia 3.96475
rfoot 345.235 16.5872
rtoes 9.81765
lfemur -11.1343 -6.2856 -26.6596
ltibia 12.8699
lfoot 377.247 6.23096
ltoes -34.5735
186
root -0.957991 16.1848 1.41771 -18.1049 96.0277 319.245
lowerback 2.09081 1.53232 -1.35878
upperback 1.64333 2.03504 -0.0646576
thorax 0.4669 1.0119 0.660564
lowerneck -23.8739 -4.22618 -4.47773
upperneck 32.6347 -4.55272 2.35742
head 15.7272 -1.89266 0.914037
rclavicle 1.31198e-014 3.81667e-014
rhumerus -20.6079 -43.6448 -68.4519
rradius 20.1385
rwrist 402.103
rhand -35.4127 355.461
rfingers 7.12502
rthumb -8.54309 -394.346
lclavicle 1.31198e-014 3.81667e-014
lhumerus -205.988 154.826 -117.988
lradius 9.42887
lwrist 5.98971
lhand -37.6817 338.613
lfingers 7.12502
lthumb -10.7322 368.319
rfemur -4.54478 12.7798 19.0197
rtibia 1.78175
rfoot 341.396 18.3157
rtoes 10.5339
lfemur -13.1011 -5.68931 -27.4269
ltibia 14.6321
lfoot 377.032 7.1648
ltoes -33.6325
187
root -1.2205 16.2763 1.47664 -18.9747 96.6948 318.794
lowerback 2.77935 1.28107 -1.61539
upperback 1.72753 1.68821 -0.157937
thorax 0.171229 0.840533 0.699174
lowerneck -24.1963 -4.45808 -4.84619
upperneck 32.6364 -4.86848 2.70194
head 15.8425 -2.02016 1.05326
rclavicle 6.75868e-015 1.03368e-014
rhumerus -19.3383 -43.0952 -70.1143
rradius 21.0868
rwrist 399.554
rhand -35.1557 352.976
rfingers 7.12502
rthumb -8.29502 -396.841
lclavicle 6.75868e-015 1.03368e-014
lhumerus -202.327 155.183 -115.218
lradius 4.43479
lwrist 7.62983
lhand -40.6661 339.668
lfingers 7.12502
lthumb -13.6098 369.203
rfemur -4.69914 13.7685 18.7033
rtibia 1.13002
rfoot 339.444 18.916
rtoes 10.4174
lfemur -14.662 -6.16275 -27.6368
ltibia 16.1582
lfoot 377.363 6.63765
ltoes -30.3384
188
root -1.45976 16.3936 1.51178 -14.6595 96.5878 323.629
lowerback 3.37923 1.24368 -0.652607
upperback 1.90292 1.66054 -0.157294
thorax 0.0430768 0.835817 0.150123
lowerneck -24.7718 -4.79025 -5.1682
upperneck 32.839 -5.32421 3.00924
head 16.1219 -2.19821 1.13707
rclavicle 2.46493e-014 1.51076e-014
rhumerus -18.4207 -40.7513 -71.9952
rradius 22.1431
rwrist 394.765
rhand -35.0606 352.251
rfingers 7.12502
rthumb -8.20328 -397.57
lclavicle 2.46493e-014 1.51076e-014
lhumerus -198.872 155.947 -112.692
lradius 0.0992048
lwrist 9.01806
lhand -41.7569 340.309
lfingers 7.12502
lthumb -14.661 369.771
rfemur -5.65846 11.9682 18.9731
rtibia 1.83181
rfoot 341.58 18.4474
rtoes 8.67277
lfemur -15.3534 -6.64038 -26.8843
ltibia 16.4662
lfoot 376.935 5.23086
ltoes -26.6534
189
root -1.67582 16.5077 1.54061 -12.0734 95.9668 326.726
lowerback 3.76243 1.37771 0.123665
upperback 2.0654 1.86523 -0.176619
thorax 0.0194256 0.945767 -0.318274
lowerneck -25.0073 -5.1768 -5.52623
upperneck 32.6357 -5.88093 3.35614
head 16.1391 -2.42664 1.22134
rclavicle 1.19271e-014 4.53229e-014
rhumerus -17.8337 -37.3067 -73.8242
rradius 23.1765
rwrist 389.426
rhand -35.0455 354.044
rfingers 7.12502
rthumb -8.18866 -395.778
lclavicle 1.19271e-014 4.53229e-014
lhumerus -196.826 156.871 -110.631
lradius -1.95596
lwrist 9.63242
lhand -41.3035 341.159
lfingers 7.12502
lthumb -14.2241 370.652
rfemur -7.17761 9.32066 19.1323
rtibia 3.58586
rfoot 345.37 17.4805
rtoes 6.38568
lfemur -15.1977 -6.55419 -26.102
ltibia 15.589
lfoot 375.686 4.21504
ltoes -24.2697
190
root -1.87188 16.5914 1.57687 -15.5077 95.1216 323.817
lowerback 3.98966 1.60979 0.0359708
upperback 2.05591 2.17057 -0.305435
thorax -0.11326 1.09818 -0.419568
lowerneck -24.4996 -5.52526 -5.8445
upperneck 32.0088 -6.41063 3.66311
head 15.7819 -2.65982 1.29489
rclavicle -1.59028e-014 -1.19271e-014
rhumerus -17.5932 -33.2734 -75.359
rradius 24.1609
rwrist 385.37
rhand -34.1413 356.242
rfingers 7.12502
rthumb -7.31592 -393.611
lclavicle -1.59028e-014 -1.19271e-014
lhumerus -196.857 157.827 -109.058
lradius -1.10803
lwrist 9.2495
lhand -40.3551 342.406
lfingers 7.12502
lthumb -13.3101 371.961
rfemur -8.51357 8.03625 18.9647
rtibia 5.30731
rfoot 348.022 16.6702
rtoes 4.72538
lfemur -14.4457 -5.94309 -25.7976
ltibia 14.0578
lfoot 375.817 2.92233
ltoes -20.6871
191
root -2.04786 16.6345 1.6263 -24.6288 94.4639 315.293
lowerback 4.23938 1.59462 -0.79323
upperback 2.1527 2.12248 -0.361675
thorax -0.181187 1.06994 -0.0178382
lowerneck -24.9977 -5.70507 -6.28805
upperneck 31.7731 -6.53948 3.8052
head 15.8181 -2.7551 1.3879
rclavicle -1.41137e-014 4.37326e-015
rhumerus -16.2758 -28.7492 -77.1958
rradius 24.5221
rwrist 383.666
rhand -33.0367 358.168
rfingers 7.12502
rthumb -6.24964 -391.72
lclavicle -1.41137e-014 4.37326e-015
lhumerus -198.083 157.875 -107.778
lradius 1.84265
lwrist 8.12089
lhand -38.9736 343.755
lfingers 7.12502
lthumb -11.9782 373.392
rfemur -9.07354 8.16571 18.6652
rtibia 6.05241
rfoot 349.177 16.3458
rtoes 3.31525
lfemur -13.4877 -4.92801 -25.8829
ltibia 12.5784
lfoot 375.386 2.47822
ltoes -17.9551
192
root -2.21323 16.6442 1.68813 -34.3901 94.4743 306.138
lowerback 4.26689 1.71999 -1.64514
upperback 2.01104 2.25281 -0.90197
thorax -0.352777 1.13347 -0.104483
lowerneck -24.3749 -6.11655 -6.10752
upperneck 31.3038 -7.38763 4.14559
head 15.5215 -3.05138 1.32947
rclavicle 2.78299e-014 3.22031e-014
rhumerus -16.0606 -25.6327 -78.8713
rradius 25.094
rwrist 384.009
rhand -32.6327 360.798
rfingers 7.12502
rthumb -5.85963 -389.101
lclavicle 2.78299e-014 3.22031e-014
lhumerus -199.711 159.336 -107.192
lradius 5.53267
lwrist 6.60846
lhand -36.3108 344.289
lfingers 7.12502
lthumb -9.40974 374.059
rfemur -8.91102 9.50124 18.3002
rtibia 5.85539
rfoot 348.945 17.1768
rtoes 2.35855
lfemur -12.8035 -4.13992 -26.2732
ltibia 11.6921
lfoot 375.077 2.98313
ltoes -18.3386
193
root -2.37183 16.6334 1.75038 -37.7813 95.0923 303.251
lowerback 4.29684 1.26484 -2.7417
upperback 1.94021 1.60509 -0.975173
thorax -0.461672 0.806892 0.461557
lowerneck -24.4331 -6.41829 -6.79091
upperneck 30.8594 -7.67409 4.46452
head 15.4013 -3.22306 1.50883
rclavicle 2.14687e-014 -7.95139e-016
rhumerus -15.2183 -21.689 -80.5249
rradius 25.5797
rwrist 386.041
rhand -32.5231 363.467
rfingers 7.12502
rthumb -5.7538 -386.435
lclavicle 2.14687e-014 -7.95139e-016
lhumerus -201.648 159.446 -106.613
lradius 9.57387
lwrist 4.6534
lhand -32.8072 344.454
lfingers 7.12502
lthumb -6.02804 374.348
rfemur -8.66931 10.9135 17.9361
rtibia 5.57274
rfoot 348.118 18.6522
rtoes 2.05226
lfemur -12.5845 -3.87773 -26.7436
ltibia 11.3599
lfoot 376.994 2.71884
ltoes -18.6825
